<svg width="24" height="24" viewBox="0 0 24 24" fill="none" xmlns="http://www.w3.org/2000/svg">
<path d="M16.832 9.29104C16.6446 9.10479 16.3912 9.00024 16.127 9.00024C15.8628 9.00024 15.6094 9.10479 15.422 9.29104L11.832 12.831L8.29199 9.29104C8.19875 9.19845 8.08819 9.12514 7.96662 9.07529C7.84505 9.02544 7.71485 9.00002 7.58345 9.00048C7.45206 9.00094 7.32204 9.02728 7.20083 9.078C7.07961 9.12871 6.96957 9.2028 6.87699 9.29604C6.78441 9.38928 6.7111 9.49984 6.66124 9.62141C6.61139 9.74298 6.58597 9.87318 6.58643 10.0046C6.5869 10.136 6.61324 10.266 6.66395 10.3872C6.71466 10.5084 6.78875 10.6185 6.88199 10.711L11.122 14.951C11.215 15.0448 11.3256 15.1192 11.4474 15.1699C11.5693 15.2207 11.7 15.2468 11.832 15.2468C11.964 15.2468 12.0947 15.2207 12.2166 15.1699C12.3384 15.1192 12.449 15.0448 12.542 14.951L16.832 10.711C16.9257 10.6181 17.0001 10.5075 17.0509 10.3856C17.1016 10.2638 17.1278 10.133 17.1278 10.001C17.1278 9.86902 17.1016 9.73832 17.0509 9.61646C17.0001 9.4946 16.9257 9.384 16.832 9.29104Z" fill="#A3ADC0"/>
</svg>
