<svg width="20" height="20" viewBox="0 0 20 20" fill="none" xmlns="http://www.w3.org/2000/svg">
<path d="M15.8 10.8334C15.6108 10.8204 15.4236 10.7868 15.2417 10.7334C14.8707 10.6505 14.506 10.5419 14.15 10.4084C13.7634 10.2678 13.3385 10.2751 12.9569 10.4289C12.5754 10.5828 12.2643 10.8723 12.0834 11.2417L11.9 11.6251C11.0907 11.1661 10.343 10.606 9.67502 9.95841C9.0274 9.29039 8.46735 8.54273 8.00836 7.73341L8.39169 7.55841C8.76116 7.37751 9.05067 7.06636 9.20452 6.68482C9.35836 6.30329 9.36567 5.87834 9.22502 5.49175C9.09268 5.13261 8.98411 4.76515 8.90002 4.39175C8.85836 4.20841 8.82502 4.01675 8.80002 3.83341C8.69883 3.24643 8.39138 2.71487 7.93304 2.33445C7.47471 1.95403 6.8956 1.74976 6.30002 1.75841H3.79169C3.43504 1.75743 3.08233 1.83303 2.7574 1.98009C2.43248 2.12715 2.14292 2.34226 1.90828 2.61086C1.67365 2.87947 1.49941 3.19531 1.39735 3.53705C1.29529 3.87879 1.26778 4.23846 1.31669 4.59175C1.76591 8.06134 3.35115 11.2846 5.825 13.7584C8.29885 16.2323 11.5221 17.8175 14.9917 18.2667C15.0999 18.275 15.2085 18.275 15.3167 18.2667C15.6452 18.2675 15.9706 18.2034 16.2743 18.078C16.578 17.9527 16.8539 17.7685 17.0862 17.5362C17.3185 17.3039 17.5026 17.028 17.628 16.7244C17.7533 16.4207 17.8175 16.0953 17.8167 15.7667V13.2667C17.8122 12.6909 17.6091 12.1343 17.2416 11.691C16.8742 11.2476 16.365 10.9447 15.8 10.8334ZM16.2084 15.8334C16.2078 15.9533 16.1816 16.0717 16.1313 16.1805C16.0811 16.2894 16.0081 16.3862 15.9173 16.4644C15.8264 16.5426 15.7198 16.6004 15.6047 16.6339C15.4896 16.6673 15.3686 16.6757 15.25 16.6584C12.1403 16.2523 9.25023 14.8351 7.02502 12.6251C4.79792 10.398 3.36838 7.49789 2.95836 4.37508C2.94096 4.25576 2.94953 4.13409 2.98349 4.01839C3.01744 3.90268 3.07599 3.79568 3.15511 3.70469C3.23423 3.61369 3.33207 3.54086 3.44194 3.49117C3.55181 3.44147 3.67111 3.41609 3.79169 3.41675H6.29169C6.48432 3.41204 6.67264 3.47424 6.82458 3.59275C6.97652 3.71126 7.08269 3.87876 7.12502 4.06675C7.14238 4.29831 7.18428 4.52737 7.25002 4.75008C7.34634 5.18663 7.47446 5.61556 7.63336 6.03341L6.46669 6.58341C6.2689 6.67816 6.11429 6.84423 6.0339 7.04828C5.95352 7.25232 5.95333 7.47923 6.03336 7.68341C7.23269 10.2524 9.29773 12.3174 11.8667 13.5167C12.0709 13.5968 12.2978 13.5966 12.5018 13.5162C12.7059 13.4358 12.8719 13.2812 12.9667 13.0834L13.4917 11.9167C13.9216 12.0735 14.3615 12.2016 14.8084 12.3001C15.025 12.3501 15.2584 12.3917 15.4834 12.4251C15.6713 12.4674 15.8388 12.5736 15.9574 12.7255C16.0759 12.8775 16.1381 13.0658 16.1334 13.2584L16.2084 15.8334ZM11.2917 1.66675H10.7084C10.5989 1.67605 10.4924 1.70682 10.3948 1.75729C10.2973 1.80776 10.2107 1.87695 10.1398 1.96091C10.069 2.04487 10.0155 2.14196 9.98218 2.24662C9.9489 2.35128 9.93655 2.46148 9.94586 2.57091C9.95516 2.68035 9.98592 2.78688 10.0364 2.88443C10.0869 2.98197 10.1561 3.06862 10.24 3.13942C10.324 3.21023 10.4211 3.2638 10.5257 3.29709C10.6304 3.33037 10.7406 3.34272 10.85 3.33341H11.2917C12.6178 3.33341 13.8895 3.8602 14.8272 4.79788C15.7649 5.73556 16.2917 7.00733 16.2917 8.33341V8.77508C16.2732 8.99492 16.3427 9.21312 16.4848 9.38183C16.627 9.55054 16.8302 9.656 17.05 9.67508H17.1167C17.3253 9.67593 17.5266 9.5985 17.6809 9.45809C17.8352 9.31769 17.9312 9.12452 17.95 8.91675V8.33341C17.95 6.56675 17.2488 4.87232 16.0003 3.62231C14.7519 2.37231 13.0584 1.66896 11.2917 1.66675ZM12.9584 8.33341C12.9584 8.55443 13.0462 8.76639 13.2024 8.92267C13.3587 9.07895 13.5707 9.16675 13.7917 9.16675C14.0127 9.16675 14.2247 9.07895 14.3809 8.92267C14.5372 8.76639 14.625 8.55443 14.625 8.33341C14.625 7.44936 14.2738 6.60151 13.6487 5.97639C13.0236 5.35127 12.1757 5.00008 11.2917 5.00008C11.0707 5.00008 10.8587 5.08788 10.7024 5.24416C10.5462 5.40044 10.4584 5.6124 10.4584 5.83341C10.4584 6.05443 10.5462 6.26639 10.7024 6.42267C10.8587 6.57895 11.0707 6.66675 11.2917 6.66675C11.7337 6.66675 12.1576 6.84234 12.4702 7.1549C12.7828 7.46746 12.9584 7.89139 12.9584 8.33341Z" fill="#2533CC"/>
</svg>
