<svg width="24" height="25" viewBox="0 0 24 25" fill="none" xmlns="http://www.w3.org/2000/svg">
<path d="M14.72 9.22677L10.43 13.5268L8.78 11.8768C8.69036 11.7721 8.58004 11.6871 8.45597 11.627C8.33191 11.567 8.19678 11.5333 8.05906 11.528C7.92134 11.5226 7.78401 11.5459 7.65568 11.5961C7.52736 11.6464 7.41081 11.7227 7.31335 11.8201C7.2159 11.9176 7.13964 12.0341 7.08937 12.1624C7.03909 12.2908 7.01589 12.4281 7.02121 12.5658C7.02653 12.7035 7.06026 12.8387 7.12028 12.9627C7.1803 13.0868 7.26532 13.1971 7.37 13.2868L9.72 15.6468C9.90737 15.833 10.1608 15.9376 10.425 15.9376C10.6892 15.9376 10.9426 15.833 11.13 15.6468L16.13 10.6468C16.2232 10.5542 16.2973 10.4441 16.348 10.3229C16.3988 10.2017 16.4251 10.0717 16.4256 9.9403C16.426 9.80891 16.4006 9.67871 16.3508 9.55714C16.3009 9.43557 16.2276 9.32501 16.135 9.23177C16.0424 9.13853 15.9324 9.06444 15.8112 9.01373C15.69 8.96302 15.5599 8.93668 15.4285 8.93621C15.2971 8.93575 15.1669 8.96117 15.0454 9.01102C14.9238 9.06088 14.8132 9.13419 14.72 9.22677ZM12 2.43677C10.0222 2.43677 8.08879 3.02326 6.4443 4.12207C4.79981 5.22089 3.51809 6.78267 2.76121 8.60993C2.00433 10.4372 1.8063 12.4479 2.19215 14.3877C2.578 16.3275 3.53041 18.1093 4.92894 19.5078C6.32746 20.9064 8.10929 21.8588 10.0491 22.2446C11.9889 22.6305 13.9996 22.4324 15.8268 21.6756C17.6541 20.9187 19.2159 19.637 20.3147 17.9925C21.4135 16.348 22 14.4146 22 12.4368C22 11.1235 21.7413 9.82319 21.2388 8.60993C20.7363 7.39668 19.9997 6.29429 19.0711 5.3657C18.1425 4.43711 17.0401 3.70052 15.8268 3.19797C14.6136 2.69543 13.3132 2.43677 12 2.43677ZM12 20.4368C10.4178 20.4368 8.87104 19.9676 7.55544 19.0885C6.23985 18.2095 5.21447 16.96 4.60897 15.4982C4.00347 14.0364 3.84504 12.4279 4.15372 10.876C4.4624 9.3242 5.22433 7.89873 6.34315 6.77991C7.46197 5.66109 8.88743 4.89917 10.4393 4.59049C11.9911 4.2818 13.5997 4.44023 15.0615 5.04573C16.5233 5.65123 17.7727 6.67661 18.6518 7.99221C19.5308 9.3078 20 10.8545 20 12.4368C20 14.5585 19.1572 16.5933 17.6569 18.0936C16.1566 19.5939 14.1217 20.4368 12 20.4368Z" fill="#49A2F9"/>
</svg>
