<svg width="32" height="33" viewBox="0 0 32 33" fill="none" xmlns="http://www.w3.org/2000/svg">
<rect y="0.64209" width="32" height="32" rx="5" fill="#E9EBEF"/>
<path d="M12.287 20.2652V12.9212C12.2886 12.4974 12.4577 12.0913 12.7574 11.7916C13.0571 11.4919 13.4631 11.3228 13.887 11.3212H12.423C11.9991 11.3228 11.5931 11.4919 11.2934 11.7916C10.9937 12.0913 10.8246 12.4974 10.823 12.9212V20.2682C10.8246 20.6921 10.9937 21.0981 11.2934 21.3978C11.5931 21.6976 11.9991 21.8666 12.423 21.8682H13.888C13.6775 21.8684 13.4691 21.827 13.2747 21.7464C13.0803 21.6659 12.9036 21.5478 12.7549 21.3989C12.6062 21.25 12.4883 21.0732 12.408 20.8787C12.3277 20.6841 12.2866 20.4757 12.287 20.2652Z" fill="#C6CDDA"/>
<path d="M18.726 15.8192C18.5327 15.6277 18.2716 15.5202 17.9995 15.5202C17.7274 15.5202 17.4663 15.6277 17.273 15.8192L14.484 18.6082L13.746 17.8702C13.5527 17.6787 13.2916 17.5712 13.0195 17.5712C12.7474 17.5712 12.4863 17.6787 12.293 17.8702L10.677 19.4822V20.2922C10.6855 20.5762 10.7677 20.8531 10.9155 21.0957C11.0633 21.3383 11.2716 21.5384 11.52 21.6762C11.7573 21.7995 12.0206 21.8643 12.288 21.8652H21.224V18.3112L18.726 15.8192Z" fill="#E9EBEF"/>
<path d="M14.772 19.1752L15.095 19.4982C15.2054 19.6084 15.355 19.6702 15.511 19.6702C15.667 19.6702 15.8166 19.6084 15.927 19.4982L18.738 16.6982C18.8959 16.542 19.1007 16.4419 19.321 16.4132L18.726 15.8202C18.5327 15.6287 18.2716 15.5212 17.9995 15.5212C17.7274 15.5212 17.4663 15.6287 17.273 15.8202L14.193 18.8902C14.4119 18.9195 14.6153 19.0196 14.772 19.1752Z" fill="#C6CDDA"/>
<path d="M12.142 21.172V20.362L13.759 18.749C13.9166 18.5929 14.1211 18.4928 14.341 18.464L13.748 17.871C13.5547 17.6794 13.2936 17.5719 13.0215 17.5719C12.7494 17.5719 12.4883 17.6794 12.295 17.871L10.677 19.484V20.294C10.6855 20.5779 10.7677 20.8548 10.9155 21.0974C11.0633 21.3401 11.2716 21.5401 11.52 21.678C11.7573 21.8012 12.0206 21.866 12.288 21.867H12.328C12.2092 21.6544 12.1452 21.4155 12.142 21.172Z" fill="#C6CDDA"/>
<path d="M13.6058 16.009C14.2531 16.009 14.7778 15.4842 14.7778 14.837C14.7778 14.1897 14.2531 13.665 13.6058 13.665C12.9586 13.665 12.4338 14.1897 12.4338 14.837C12.4338 15.4842 12.9586 16.009 13.6058 16.009Z" fill="#E9EBEF"/>
<path d="M21.222 23.1806H20.343V12.9286C20.3429 12.8324 20.3238 12.7371 20.2868 12.6482C20.2499 12.5593 20.1958 12.4786 20.1276 12.4106C20.0595 12.3426 19.9786 12.2888 19.8896 12.252C19.8006 12.2153 19.7053 12.1965 19.609 12.1966H9.35901V11.3176H19.609C20.0362 11.3179 20.4458 11.4877 20.7479 11.7898C21.0499 12.0918 21.2197 12.5014 21.22 12.9286L21.222 23.1806Z" fill="#A3ADC0"/>
<path d="M22.54 21.8642H12.288C12.0763 21.8641 11.8667 21.8223 11.6712 21.7411C11.4757 21.66 11.298 21.5412 11.1484 21.3914C10.9988 21.2416 10.8802 21.0638 10.7993 20.8682C10.7184 20.6726 10.6769 20.4629 10.677 20.2512V10.0012H11.556V20.2512C11.5563 20.4453 11.6335 20.6313 11.7707 20.7685C11.9079 20.9057 12.0939 20.983 12.288 20.9832H22.54V21.8642Z" fill="#A3ADC0"/>
<path d="M13.607 16.0052C13.3752 16.0052 13.1486 15.9365 12.9559 15.8077C12.7631 15.6789 12.6129 15.4959 12.5242 15.2817C12.4355 15.0676 12.4123 14.8319 12.4575 14.6046C12.5027 14.3772 12.6144 14.1684 12.7783 14.0045C12.9422 13.8406 13.151 13.729 13.3784 13.6837C13.6057 13.6385 13.8413 13.6617 14.0555 13.7504C14.2697 13.8391 14.4527 13.9894 14.5815 14.1821C14.7103 14.3748 14.779 14.6014 14.779 14.8332C14.7787 15.144 14.6552 15.4419 14.4354 15.6617C14.2157 15.8814 13.9178 16.005 13.607 16.0052ZM13.607 14.5402C13.549 14.5402 13.4924 14.5574 13.4442 14.5896C13.396 14.6218 13.3585 14.6676 13.3363 14.7211C13.3141 14.7746 13.3083 14.8336 13.3196 14.8904C13.3309 14.9472 13.3588 14.9994 13.3998 15.0404C13.4408 15.0814 13.493 15.1093 13.5498 15.1206C13.6067 15.1319 13.6656 15.1261 13.7191 15.1039C13.7727 15.0817 13.8184 15.0442 13.8506 14.996C13.8828 14.9478 13.9 14.8912 13.9 14.8332C13.8997 14.7557 13.8687 14.6814 13.8138 14.6267C13.7589 14.572 13.6845 14.5412 13.607 14.5412V14.5402Z" fill="#A3ADC0"/>
<path d="M11.4268 19.9789L10.8058 19.3579L12.2938 17.8699C12.4865 17.6774 12.7478 17.5693 13.0203 17.5693C13.2927 17.5693 13.554 17.6774 13.7468 17.8699L14.4848 18.6079L17.2738 15.8189C17.4697 15.6325 17.7298 15.5286 18.0003 15.5286C18.2707 15.5286 18.5308 15.6325 18.7268 15.8189L21.0938 18.1859L20.4728 18.8069L18.1048 16.4449C18.0931 16.4278 18.0775 16.4138 18.0592 16.4041C18.0409 16.3944 18.0205 16.3894 17.9998 16.3894C17.9791 16.3894 17.9587 16.3944 17.9404 16.4041C17.9221 16.4138 17.9064 16.4278 17.8948 16.4449L14.7948 19.5449C14.754 19.5859 14.7055 19.6184 14.6522 19.6405C14.5988 19.6627 14.5416 19.6741 14.4838 19.6741C14.426 19.6741 14.3688 19.6627 14.3154 19.6405C14.262 19.6184 14.2136 19.5859 14.1728 19.5449L13.1258 18.4919C13.0977 18.4645 13.06 18.4491 13.0208 18.4491C12.9815 18.4491 12.9438 18.4645 12.9158 18.4919L11.4268 19.9789Z" fill="#A3ADC0"/>
</svg>
