<svg width="25" height="24" viewBox="0 0 25 24" fill="none" xmlns="http://www.w3.org/2000/svg">
<path d="M23.3975 12.0004L24.4505 9.25443C24.5072 9.10652 24.5157 8.94447 24.4747 8.79144C24.4338 8.63841 24.3455 8.50225 24.2225 8.40244L21.9395 6.55143L21.4775 3.64643C21.4524 3.49018 21.3785 3.34587 21.2665 3.23415C21.1544 3.12243 21.0098 3.04902 20.8535 3.02443L17.9485 2.56243L16.0985 0.277435C15.9988 0.154846 15.863 0.066821 15.7104 0.0258859C15.5578 -0.0150492 15.3961 -0.00680862 15.2485 0.049435L12.4995 1.10044L9.7535 0.051435C9.6059 -0.00527671 9.44413 -0.0137597 9.29142 0.0272041C9.1387 0.0681679 9.00289 0.156471 8.90349 0.279435L7.0525 2.56343L4.1475 3.02543C3.99165 3.05069 3.8477 3.12436 3.73606 3.236C3.62443 3.34764 3.55076 3.49159 3.5255 3.64743L3.0625 6.55343L0.777496 8.40043C0.654782 8.50002 0.566665 8.63583 0.52572 8.78848C0.484775 8.94112 0.493096 9.1028 0.549496 9.25043L1.6025 12.0004L0.549496 14.7474C0.492784 14.895 0.484301 15.0568 0.525265 15.2095C0.566228 15.3622 0.654532 15.498 0.777496 15.5974L3.0615 17.4464L3.5235 20.3514C3.54808 20.5078 3.62149 20.6523 3.73321 20.7644C3.84493 20.8765 3.98924 20.9503 4.1455 20.9754L7.0505 21.4374L8.90149 23.7204C9.00083 23.8441 9.13699 23.9328 9.29019 23.9738C9.4434 24.0148 9.60569 24.0059 9.7535 23.9484L12.4995 22.9004L15.2455 23.9534C15.3935 24.01 15.5556 24.0184 15.7087 23.9772C15.8617 23.9361 15.9978 23.8476 16.0975 23.7244L17.9465 21.4414L20.8515 20.9794C21.0081 20.9546 21.1527 20.8808 21.2648 20.7688C21.3769 20.6567 21.4506 20.512 21.4755 20.3554L21.9375 17.4504L24.2225 15.6004C24.3453 15.5009 24.4335 15.3651 24.4745 15.2125C24.5155 15.0598 24.5071 14.898 24.4505 14.7504L23.3975 12.0004Z" fill="#2533CC"/>
<path d="M9.84155 10.2303C9.31585 10.2303 8.80196 10.0744 8.36485 9.78235C7.92775 9.49029 7.58707 9.07516 7.3859 8.58948C7.18472 8.10379 7.13208 7.56936 7.23464 7.05376C7.3372 6.53816 7.59034 6.06454 7.96207 5.69281C8.3338 5.32108 8.80741 5.06794 9.32301 4.96538C9.83862 4.86282 10.373 4.91546 10.8587 5.11664C11.3444 5.31782 11.7595 5.65849 12.0516 6.0956C12.3437 6.5327 12.4996 7.04659 12.4996 7.5723C12.4988 8.277 12.2185 8.95261 11.7202 9.45091C11.2219 9.94921 10.5463 10.2295 9.84155 10.2303ZM9.84155 6.68631C9.66632 6.68631 9.49502 6.73826 9.34932 6.83562C9.20362 6.93297 9.09007 7.07135 9.02301 7.23325C8.95595 7.39514 8.93839 7.57328 8.97258 7.74515C9.00677 7.91702 9.09115 8.0749 9.21506 8.19881C9.33897 8.32272 9.49685 8.4071 9.66872 8.44129C9.84058 8.47547 10.0187 8.45791 10.1806 8.39086C10.3425 8.3238 10.4809 8.21025 10.5782 8.06455C10.6756 7.91884 10.7276 7.74753 10.7276 7.5723C10.7276 7.33732 10.6342 7.11196 10.4681 6.9458C10.3019 6.77964 10.0765 6.68631 9.84155 6.68631Z" fill="white"/>
<path d="M15.1575 19.0897C14.6318 19.0897 14.1179 18.9338 13.6808 18.6417C13.2437 18.3497 12.903 17.9346 12.7018 17.4489C12.5006 16.9632 12.448 16.4287 12.5505 15.9131C12.6531 15.3975 12.9063 14.9239 13.278 14.5522C13.6497 14.1805 14.1233 13.9273 14.6389 13.8248C15.1545 13.7222 15.689 13.7748 16.1747 13.976C16.6604 14.1772 17.0755 14.5179 17.3675 14.955C17.6596 15.3921 17.8155 15.906 17.8155 16.4317C17.8147 17.1364 17.5344 17.812 17.0361 18.3103C16.5378 18.8086 15.8622 19.0889 15.1575 19.0897ZM15.1575 15.5457C14.9822 15.5457 14.811 15.5977 14.6653 15.695C14.5196 15.7924 14.406 15.9307 14.3389 16.0926C14.2719 16.2545 14.2543 16.4327 14.2885 16.6045C14.3227 16.7764 14.4071 16.9343 14.531 17.0582C14.6549 17.1821 14.8128 17.2665 14.9846 17.3007C15.1565 17.3349 15.3346 17.3173 15.4965 17.2503C15.6584 17.1832 15.7968 17.0696 15.8942 16.9239C15.9915 16.7782 16.0435 16.6069 16.0435 16.4317C16.0427 16.1969 15.9491 15.9721 15.7831 15.8061C15.6171 15.6401 15.3922 15.5465 15.1575 15.5457Z" fill="white"/>
<path d="M8.06959 19.0921C7.90712 19.0916 7.74791 19.0464 7.60938 18.9616C7.47085 18.8767 7.35833 18.7554 7.28411 18.6109C7.20989 18.4663 7.17684 18.3042 7.18856 18.1421C7.20028 17.9801 7.25633 17.8244 7.35058 17.6921L16.2106 5.29208C16.3494 5.10703 16.5551 4.98361 16.7837 4.94819C17.0123 4.91278 17.2457 4.96818 17.434 5.10255C17.6223 5.23692 17.7506 5.4396 17.7914 5.66729C17.8323 5.89499 17.7824 6.12964 17.6526 6.32109L8.79258 18.7211C8.71017 18.8359 8.60162 18.9294 8.4759 18.9939C8.35017 19.0584 8.2109 19.0921 8.06959 19.0921Z" fill="white"/>
</svg>
