<svg width="13" height="16" viewBox="0 0 13 16" fill="none" xmlns="http://www.w3.org/2000/svg">
<path d="M12.3289 8.56879C11.9151 6.85874 11.0272 5.41434 9.85939 4.12448C9.84064 4.10391 9.82327 4.07968 9.78806 4.09614C9.93026 5.25659 10.024 6.41111 9.34317 7.4632C9.37884 7.16417 9.40536 6.86468 9.41953 6.56382C9.45474 5.80527 9.29288 5.10388 8.84753 4.47564C8.60932 4.13957 8.35052 3.82088 8.08487 3.50722C7.42097 2.72215 7.22573 1.83055 7.43789 0.83378C7.49687 0.558068 7.58786 0.291959 7.67153 0.000244141C7.61986 0.0203624 7.5938 0.0290498 7.56911 0.0404806C6.59886 0.488112 5.76075 1.11681 5.00861 1.87307C3.72378 3.16567 3.27341 4.71569 3.53677 6.49661C3.57107 6.72888 3.61359 6.96024 3.65245 7.19206C3.42064 6.80433 3.11155 6.49981 2.77594 6.21312C2.50937 5.98588 2.3754 5.68182 2.33151 5.33295C2.30865 5.14823 2.34248 4.96899 2.34568 4.77101C2.26018 4.80256 2.23275 4.86246 2.19571 4.90955C1.58805 5.69416 1.08966 6.54187 0.727992 7.46777C0.360834 8.40921 0.118044 9.38403 0.230523 10.3941C0.453196 12.3922 1.39555 13.9815 3.112 15.0569C4.62773 16.0061 6.2788 16.2302 8.00165 15.7688C11.1191 14.9335 13.1135 11.8156 12.3289 8.56879ZM8.69619 13.4831C8.20192 14.0643 7.57826 14.4182 6.83159 14.5261C5.99486 14.6472 5.22488 14.452 4.5564 13.9221C3.7631 13.2934 3.36577 12.4603 3.29307 11.4571C3.27432 11.2002 3.26381 10.9446 3.26655 10.6881C3.26746 10.6199 3.26426 10.5504 3.31639 10.4736C3.43207 10.726 3.53815 10.9743 3.71555 11.1796C3.89296 11.3849 4.09323 11.5568 4.36391 11.6281L4.36482 11.6268C4.14581 11.2971 3.96886 10.9491 3.8861 10.5582C3.71509 9.75211 3.85272 8.99218 4.24457 8.27707C4.8248 7.21675 5.6469 6.35349 6.51382 5.52865C6.53851 5.50533 6.56777 5.48658 6.59612 5.46738C6.60892 5.45869 6.62447 5.45366 6.65922 5.4372C6.6423 5.83591 6.68208 6.21632 6.79547 6.58668C6.9459 7.07958 7.19189 7.51807 7.53939 7.89803C7.96645 8.3644 8.42825 8.79969 8.77621 9.33511C9.20189 9.99032 9.45428 10.6995 9.45337 11.4846C9.45245 12.2422 9.18771 12.9047 8.69619 13.4831Z" fill="#FB6D02"/>
<path d="M4.36219 11.6268C4.14318 11.2972 3.96577 10.9492 3.88301 10.5583C3.71247 9.75219 3.84963 8.99227 4.24148 8.27716C4.82217 7.21684 5.64382 6.35358 6.51073 5.52919C6.53542 5.50587 6.56468 5.48713 6.59303 5.46746C6.60583 5.45878 6.62184 5.45375 6.65659 5.43774C6.63967 5.83645 6.67945 6.21641 6.79284 6.58723C6.94327 7.08012 7.18926 7.51815 7.53676 7.89811C7.96336 8.36449 8.42562 8.79978 8.77357 9.3352C9.19926 9.99041 9.45119 10.6996 9.45028 11.4846C9.44936 12.2423 9.18463 12.9048 8.6931 13.4832C8.19883 14.0644 7.57562 14.4183 6.82851 14.5262C5.99223 14.6473 5.22179 14.4516 4.55332 13.9222C3.76002 13.2935 3.36314 12.4604 3.28998 11.4572C3.27124 11.2002 3.26072 10.9451 3.26346 10.6881C3.26438 10.62 3.26118 10.5505 3.3133 10.4737C3.42898 10.7261 3.53506 10.9739 3.71247 11.1797C3.88987 11.385 4.09014 11.5569 4.36082 11.6282C4.36631 11.6342 4.37225 11.6401 4.37774 11.6461C4.37774 11.6419 4.37911 11.636 4.37682 11.6342C4.37317 11.63 4.36722 11.6291 4.36219 11.6268Z" fill="#FDDE82"/>
<path d="M4.36191 11.6252C4.36694 11.6275 4.37288 11.6284 4.37654 11.6321C4.37882 11.6339 4.37745 11.6399 4.37745 11.644C4.37197 11.638 4.36602 11.6321 4.36053 11.6262C4.36053 11.6266 4.36191 11.6252 4.36191 11.6252Z" fill="#D00128"/>
</svg>
