<svg width="56" height="55" viewBox="0 0 56 55" fill="none" xmlns="http://www.w3.org/2000/svg">
<path d="M11.7549 12.9974V12.4064H3.3499L6.1499 4.00637C6.30952 3.52684 6.61645 3.10994 7.02693 2.81509C7.43742 2.52025 7.9305 2.36251 8.4359 2.36437H13.3979C13.5519 2.01037 13.7169 1.65537 13.8979 1.30737L49.5629 1.77437L54.2799 12.9974H11.7549Z" fill="#E9EBEF"/>
<path d="M52.07 3.13369C51.7669 2.2209 51.1836 1.42695 50.4031 0.86482C49.6227 0.302688 48.6848 0.00100483 47.723 0.00269259H8.433C7.43307 0.00175489 6.45822 0.315675 5.64673 0.899927C4.83524 1.48418 4.2283 2.3091 3.912 3.25769L0.533005 13.0027V23.4027C0.533005 24.6826 1.04146 25.9101 1.94651 26.8152C2.85156 27.7202 4.07907 28.2287 5.359 28.2287H50.641C51.9209 28.2287 53.1484 27.7202 54.0535 26.8152C54.9586 25.9101 55.467 24.6826 55.467 23.4027V13.0027L52.07 3.13369ZM6.15 4.00269C6.31032 3.52458 6.61716 3.10911 7.02697 2.81526C7.43678 2.52141 7.92873 2.36411 8.433 2.36569H47.563C48.0678 2.36348 48.5604 2.52049 48.9708 2.81438C49.3812 3.10828 49.6885 3.52409 49.849 4.00269L52.649 12.4027H3.351L6.15 4.00269ZM53.104 23.4027C53.104 24.0559 52.8445 24.6824 52.3826 25.1443C51.9207 25.6062 51.2942 25.8657 50.641 25.8657H5.359C4.70578 25.8657 4.0793 25.6062 3.6174 25.1443C3.1555 24.6824 2.896 24.0559 2.896 23.4027V14.7727H53.104V23.4027Z" fill="#2533CC"/>
<path d="M36.565 4.75171H9.39401C9.0676 4.75171 8.80301 5.01608 8.80301 5.34221C8.80301 5.66833 9.0676 5.93271 9.39401 5.93271H36.565C36.8914 5.93271 37.156 5.66833 37.156 5.34221C37.156 5.01608 36.8914 4.75171 36.565 4.75171Z" fill="#2533CC"/>
<path d="M46.606 4.75171H40.109C39.7826 4.75171 39.518 5.01608 39.518 5.34221C39.518 5.66833 39.7826 5.93271 40.109 5.93271H46.606C46.9324 5.93271 47.197 5.66833 47.197 5.34221C47.197 5.01608 46.9324 4.75171 46.606 4.75171Z" fill="#2533CC"/>
<path d="M34.793 20.2807C34.793 20.4374 34.7307 20.5878 34.6199 20.6986C34.5091 20.8094 34.3587 20.8717 34.202 20.8717H19.436C19.3564 20.875 19.277 20.8621 19.2025 20.8339C19.128 20.8057 19.06 20.7627 19.0025 20.7076C18.945 20.6524 18.8993 20.5862 18.868 20.513C18.8368 20.4397 18.8207 20.3608 18.8207 20.2812C18.8207 20.2015 18.8368 20.1227 18.868 20.0494C18.8993 19.9761 18.945 19.9099 19.0025 19.8548C19.06 19.7996 19.128 19.7567 19.2025 19.7285C19.277 19.7003 19.3564 19.6874 19.436 19.6907H34.203C34.3594 19.691 34.5093 19.7532 34.6199 19.8638C34.7305 19.9744 34.7927 20.1243 34.793 20.2807Z" fill="#2533CC"/>
<path d="M8.21201 18.2137V22.3487C8.20573 22.5011 8.14078 22.6452 8.03072 22.7508C7.92067 22.8564 7.77404 22.9154 7.62151 22.9154C7.46897 22.9154 7.32234 22.8564 7.21229 22.7508C7.10223 22.6452 7.03728 22.5011 7.03101 22.3487V18.2137C7.03728 18.0613 7.10223 17.9172 7.21229 17.8116C7.32234 17.7059 7.46897 17.647 7.62151 17.647C7.77404 17.647 7.92067 17.7059 8.03072 17.8116C8.14078 17.9172 8.20573 18.0613 8.21201 18.2137Z" fill="#2533CC"/>
<path d="M11.756 18.2137V22.3487C11.7497 22.5011 11.6848 22.6452 11.5747 22.7508C11.4647 22.8564 11.318 22.9154 11.1655 22.9154C11.013 22.9154 10.8663 22.8564 10.7563 22.7508C10.6462 22.6452 10.5813 22.5011 10.575 22.3487V18.2137C10.5813 18.0613 10.6462 17.9172 10.7563 17.8116C10.8663 17.7059 11.013 17.647 11.1655 17.647C11.318 17.647 11.4647 17.7059 11.5747 17.8116C11.6848 17.9172 11.7497 18.0613 11.756 18.2137Z" fill="#2533CC"/>
<path d="M15.3 18.2117V22.3467C15.2937 22.4991 15.2287 22.6432 15.1187 22.7488C15.0086 22.8545 14.862 22.9134 14.7095 22.9134C14.5569 22.9134 14.4103 22.8545 14.3002 22.7488C14.1902 22.6432 14.1252 22.4991 14.119 22.3467V18.2117C14.1157 18.1322 14.1285 18.0527 14.1567 17.9782C14.1849 17.9037 14.2279 17.8357 14.283 17.7782C14.3382 17.7207 14.4044 17.675 14.4777 17.6438C14.551 17.6125 14.6298 17.5964 14.7095 17.5964C14.7891 17.5964 14.8679 17.6125 14.9412 17.6438C15.0145 17.675 15.0807 17.7207 15.1359 17.7782C15.191 17.8357 15.234 17.9037 15.2622 17.9782C15.2904 18.0527 15.3032 18.1322 15.3 18.2117Z" fill="#2533CC"/>
<path d="M39.2229 21.7575C40.0386 21.7575 40.6999 21.0962 40.6999 20.2805C40.6999 19.4647 40.0386 18.8035 39.2229 18.8035C38.4072 18.8035 37.7459 19.4647 37.7459 20.2805C37.7459 21.0962 38.4072 21.7575 39.2229 21.7575Z" fill="#2533CC"/>
<path d="M43.3581 21.7575C44.1739 21.7575 44.8351 21.0962 44.8351 20.2805C44.8351 19.4647 44.1739 18.8035 43.3581 18.8035C42.5424 18.8035 41.8811 19.4647 41.8811 20.2805C41.8811 21.0962 42.5424 21.7575 43.3581 21.7575Z" fill="#2533CC"/>
<path d="M47.4919 21.7575C48.3077 21.7575 48.9689 21.0962 48.9689 20.2805C48.9689 19.4647 48.3077 18.8035 47.4919 18.8035C46.6762 18.8035 46.0149 19.4647 46.0149 20.2805C46.0149 21.0962 46.6762 21.7575 47.4919 21.7575Z" fill="#2533CC"/>
<path d="M12.347 41.3508C12.817 41.3508 13.2677 41.5375 13.6 41.8698C13.9323 42.2021 14.119 42.6528 14.119 43.1228V50.8018C14.119 51.2718 13.9323 51.7225 13.6 52.0548C13.2677 52.3871 12.817 52.5738 12.347 52.5738H4.668C4.19804 52.5738 3.74733 52.3871 3.41501 52.0548C3.0827 51.7225 2.896 51.2718 2.896 50.8018V43.1228C2.896 42.6528 3.0827 42.2021 3.41501 41.8698C3.74733 41.5375 4.19804 41.3508 4.668 41.3508H12.347ZM12.347 38.9878H4.668C3.57133 38.9878 2.51958 39.4234 1.74412 40.1989C0.968655 40.9744 0.533005 42.0261 0.533005 43.1228L0.533005 50.8018C0.533005 51.8985 0.968655 52.9502 1.74412 53.7257C2.51958 54.5011 3.57133 54.9368 4.668 54.9368H12.347C13.4437 54.9368 14.4954 54.5011 15.2709 53.7257C16.0464 52.9502 16.482 51.8985 16.482 50.8018V43.1228C16.482 42.0261 16.0464 40.9744 15.2709 40.1989C14.4954 39.4234 13.4437 38.9878 12.347 38.9878Z" fill="#2533CC"/>
<path d="M31.839 41.3508C32.309 41.3508 32.7597 41.5375 33.092 41.8698C33.4243 42.2021 33.611 42.6528 33.611 43.1228V50.8018C33.611 51.2718 33.4243 51.7225 33.092 52.0548C32.7597 52.3871 32.309 52.5738 31.839 52.5738H24.16C23.69 52.5738 23.2393 52.3871 22.907 52.0548C22.5747 51.7225 22.388 51.2718 22.388 50.8018V43.1228C22.388 42.6528 22.5747 42.2021 22.907 41.8698C23.2393 41.5375 23.69 41.3508 24.16 41.3508H31.839ZM31.839 38.9878H24.16C23.0633 38.9878 22.0116 39.4234 21.2361 40.1989C20.4607 40.9744 20.025 42.0261 20.025 43.1228V50.8018C20.025 51.8985 20.4607 52.9502 21.2361 53.7257C22.0116 54.5011 23.0633 54.9368 24.16 54.9368H31.839C32.9357 54.9368 33.9874 54.5011 34.7629 53.7257C35.5384 52.9502 35.974 51.8985 35.974 50.8018V43.1228C35.974 42.0261 35.5384 40.9744 34.7629 40.1989C33.9874 39.4234 32.9357 38.9878 31.839 38.9878Z" fill="#2533CC"/>
<path d="M51.332 41.3508C51.802 41.3508 52.2527 41.5375 52.585 41.8698C52.9173 42.2021 53.104 42.6528 53.104 43.1228V50.8018C53.104 51.2718 52.9173 51.7225 52.585 52.0548C52.2527 52.3871 51.802 52.5738 51.332 52.5738H43.653C43.183 52.5738 42.7323 52.3871 42.4 52.0548C42.0677 51.7225 41.881 51.2718 41.881 50.8018V43.1228C41.881 42.6528 42.0677 42.2021 42.4 41.8698C42.7323 41.5375 43.183 41.3508 43.653 41.3508H51.332ZM51.332 38.9878H43.653C42.5563 38.9878 41.5046 39.4234 40.7291 40.1989C39.9537 40.9744 39.518 42.0261 39.518 43.1228V50.8018C39.518 51.8985 39.9537 52.9502 40.7291 53.7257C41.5046 54.5011 42.5563 54.9368 43.653 54.9368H51.332C52.4287 54.9368 53.4804 54.5011 54.2559 53.7257C55.0314 52.9502 55.467 51.8985 55.467 50.8018V43.1228C55.467 42.5798 55.36 42.0421 55.1522 41.5404C54.9444 41.0387 54.6399 40.5829 54.2559 40.1989C53.8719 39.8149 53.4161 39.5104 52.9144 39.3026C52.4127 39.0947 51.875 38.9878 51.332 38.9878Z" fill="#2533CC"/>
<path d="M28.886 27.1978H26.523V40.1928H28.886V27.1978Z" fill="#2533CC"/>
<path d="M9.39405 40.17H7.03105V36.035C7.03105 35.095 7.40444 34.1936 8.06907 33.529C8.73369 32.8644 9.63512 32.491 10.5751 32.491H27.7051V34.854H10.5751C10.2618 34.854 9.96144 34.9784 9.73996 35.1999C9.51848 35.4214 9.39405 35.7217 9.39405 36.035V40.17Z" fill="#2533CC"/>
<path d="M48.3789 40.17H46.0159V36.035C46.0159 35.7217 45.8915 35.4214 45.67 35.1999C45.4485 34.9784 45.1481 34.854 44.8349 34.854H27.7049V32.491H44.8349C45.7748 32.491 46.6762 32.8644 47.3409 33.529C48.0055 34.1936 48.3789 35.095 48.3789 36.035V40.17Z" fill="#2533CC"/>
<path d="M30.0671 44.9167H25.9331C25.6067 44.9167 25.3421 45.1811 25.3421 45.5072C25.3421 45.8334 25.6067 46.0977 25.9331 46.0977H30.0671C30.3935 46.0977 30.6581 45.8334 30.6581 45.5072C30.6581 45.1811 30.3935 44.9167 30.0671 44.9167Z" fill="#2533CC"/>
<path d="M30.0671 47.8699H25.9331C25.6067 47.8699 25.3421 48.1342 25.3421 48.4604C25.3421 48.7865 25.6067 49.0509 25.9331 49.0509H30.0671C30.3935 49.0509 30.6581 48.7865 30.6581 48.4604C30.6581 48.1342 30.3935 47.8699 30.0671 47.8699Z" fill="#2533CC"/>
<path d="M10.5739 44.9167H6.43992C6.11352 44.9167 5.84892 45.1811 5.84892 45.5072C5.84892 45.8334 6.11352 46.0977 6.43992 46.0977H10.5739C10.9003 46.0977 11.1649 45.8334 11.1649 45.5072C11.1649 45.1811 10.9003 44.9167 10.5739 44.9167Z" fill="#2533CC"/>
<path d="M10.5739 47.8699H6.43992C6.11352 47.8699 5.84892 48.1342 5.84892 48.4604C5.84892 48.7865 6.11352 49.0509 6.43992 49.0509H10.5739C10.9003 49.0509 11.1649 48.7865 11.1649 48.4604C11.1649 48.1342 10.9003 47.8699 10.5739 47.8699Z" fill="#2533CC"/>
<path d="M49.5588 44.9167H45.4248C45.0984 44.9167 44.8338 45.1811 44.8338 45.5072C44.8338 45.8334 45.0984 46.0977 45.4248 46.0977H49.5588C49.8852 46.0977 50.1498 45.8334 50.1498 45.5072C50.1498 45.1811 49.8852 44.9167 49.5588 44.9167Z" fill="#2533CC"/>
<path d="M49.5588 47.8699H45.4248C45.0984 47.8699 44.8338 48.1342 44.8338 48.4604C44.8338 48.7865 45.0984 49.0509 45.4248 49.0509H49.5588C49.8852 49.0509 50.1498 48.7865 50.1498 48.4604C50.1498 48.1342 49.8852 47.8699 49.5588 47.8699Z" fill="#2533CC"/>
</svg>
