<svg width="25" height="25" viewBox="0 0 25 25" fill="none" xmlns="http://www.w3.org/2000/svg">
<path d="M12.8887 9.76756C12.3982 9.76756 11.9187 9.91301 11.5109 10.1855C11.103 10.458 10.7852 10.8453 10.5975 11.2985C10.4097 11.7517 10.3606 12.2503 10.4563 12.7314C10.552 13.2125 10.7882 13.6543 11.135 14.0012C11.4819 14.348 11.9238 14.5842 12.4048 14.6799C12.8859 14.7756 13.3846 14.7265 13.8377 14.5388C14.2909 14.3511 14.6782 14.0332 14.9507 13.6254C15.2232 13.2175 15.3687 12.7381 15.3687 12.2476C15.3687 11.9219 15.3045 11.5994 15.1799 11.2985C15.0553 10.9976 14.8726 10.7242 14.6423 10.4939C14.412 10.2636 14.1386 10.081 13.8377 9.95634C13.5368 9.83171 13.2143 9.76756 12.8887 9.76756ZM22.8187 7.31756C22.8134 6.54532 22.6712 5.78013 22.3987 5.05756C22.198 4.52882 21.8874 4.04865 21.4875 3.64874C21.0876 3.24884 20.6074 2.93828 20.0787 2.73756C19.3561 2.46502 18.5909 2.32282 17.8187 2.31756C16.5287 2.24756 16.1487 2.24756 12.8887 2.24756C9.62867 2.24756 9.24867 2.24756 7.95867 2.31756C7.18643 2.32282 6.42124 2.46502 5.69867 2.73756C5.16993 2.93828 4.68977 3.24884 4.28986 3.64874C3.88995 4.04865 3.57939 4.52882 3.37867 5.05756C3.10614 5.78013 2.96393 6.54532 2.95867 7.31756C2.88867 8.60756 2.88867 8.98756 2.88867 12.2476C2.88867 15.5076 2.88867 15.8876 2.95867 17.1776C2.96944 17.9525 3.11145 18.7201 3.37867 19.4476C3.5785 19.9739 3.8888 20.4513 4.28867 20.8476C4.68687 21.2499 5.16806 21.5604 5.69867 21.7576C6.42124 22.0301 7.18643 22.1723 7.95867 22.1776C9.24867 22.2476 9.62867 22.2476 12.8887 22.2476C16.1487 22.2476 16.5287 22.2476 17.8187 22.1776C18.5909 22.1723 19.3561 22.0301 20.0787 21.7576C20.6093 21.5604 21.0905 21.2499 21.4887 20.8476C21.8885 20.4513 22.1988 19.9739 22.3987 19.4476C22.6709 18.7214 22.8131 17.953 22.8187 17.1776C22.8887 15.8876 22.8887 15.5076 22.8887 12.2476C22.8887 8.98756 22.8887 8.60756 22.8187 7.31756ZM20.2787 15.3176C20.2466 15.9347 20.1149 16.5425 19.8887 17.1176C19.6945 17.5972 19.4059 18.033 19.04 18.3989C18.6741 18.7648 18.2384 19.0534 17.7587 19.2476C17.1782 19.4612 16.5669 19.5793 15.9487 19.5976H9.82867C9.2104 19.5793 8.59916 19.4612 8.01867 19.2476C7.53481 19.0606 7.09537 18.7745 6.72856 18.4077C6.36176 18.0409 6.07567 17.6014 5.88867 17.1176C5.67423 16.5377 5.55928 15.9257 5.54867 15.3076C5.54867 14.5176 5.54867 14.3076 5.54867 12.2476V9.18756C5.55928 8.56938 5.67423 7.95744 5.88867 7.37756C6.07295 6.88166 6.36695 6.43384 6.74867 6.06756C7.10901 5.70718 7.54194 5.42765 8.01867 5.24756C8.59916 5.03396 9.2104 4.91577 9.82867 4.89756H15.9487C16.5669 4.91577 17.1782 5.03396 17.7587 5.24756C18.2425 5.43456 18.682 5.72064 19.0488 6.08745C19.4156 6.45426 19.7017 6.89369 19.8887 7.37756C20.1023 7.95805 20.2205 8.56929 20.2387 9.18756C20.2387 9.97756 20.2387 10.1876 20.2387 12.2476C20.2387 14.3076 20.3087 14.5176 20.2787 15.3076V15.3176ZM18.6787 7.87756C18.5596 7.55454 18.3719 7.2612 18.1285 7.01777C17.885 6.77434 17.5917 6.58662 17.2687 6.46756C16.8251 6.31382 16.358 6.23935 15.8887 6.24756H9.88867C9.41694 6.25217 8.94974 6.34019 8.50867 6.50756C8.1906 6.62121 7.90036 6.80127 7.65726 7.03576C7.41415 7.27025 7.22373 7.5538 7.09867 7.86756C6.95345 8.31293 6.8825 8.77915 6.88867 9.24756V15.2476C6.89859 15.7188 6.98644 16.1851 7.14867 16.6276C7.26774 16.9506 7.45546 17.2439 7.69889 17.4873C7.94231 17.7308 8.23566 17.9185 8.55867 18.0376C8.98534 18.1945 9.43432 18.2822 9.88867 18.2976H15.8887C16.3604 18.2929 16.8276 18.2049 17.2687 18.0376C17.5917 17.9185 17.885 17.7308 18.1285 17.4873C18.3719 17.2439 18.5596 16.9506 18.6787 16.6276C18.846 16.1865 18.9341 15.7193 18.9387 15.2476V9.24756C18.939 8.77536 18.8508 8.30728 18.6787 7.86756V7.87756ZM12.8887 16.0676C12.3875 16.0676 11.8912 15.9687 11.4283 15.7766C10.9654 15.5845 10.545 15.303 10.1911 14.9481C9.83713 14.5933 9.5567 14.1721 9.36582 13.7087C9.17493 13.2452 9.07736 12.7487 9.07867 12.2476C9.07867 11.4916 9.30297 10.7527 9.72316 10.1242C10.1433 9.49583 10.7405 9.00622 11.4391 8.71739C12.1377 8.42856 12.9063 8.3535 13.6476 8.50171C14.3889 8.64991 15.0695 9.01473 15.6034 9.54997C16.1372 10.0852 16.5002 10.7668 16.6465 11.5085C16.7928 12.2501 16.7157 13.0185 16.425 13.7164C16.1344 14.4142 15.6432 15.0101 15.0137 15.4286C14.3842 15.8472 13.6446 16.0695 12.8887 16.0676ZM16.8887 9.17756C16.6676 9.15416 16.463 9.04978 16.3144 8.88453C16.1657 8.71928 16.0834 8.50485 16.0834 8.28256C16.0834 8.06027 16.1657 7.84584 16.3144 7.68059C16.463 7.51534 16.6676 7.41096 16.8887 7.38756C17.1097 7.41096 17.3143 7.51534 17.463 7.68059C17.6117 7.84584 17.6939 8.06027 17.6939 8.28256C17.6939 8.50485 17.6117 8.71928 17.463 8.88453C17.3143 9.04978 17.1097 9.15416 16.8887 9.17756Z" fill="#C6CDDA"/>
</svg>
