<svg width="25" height="25" viewBox="0 0 25 25" fill="none" xmlns="http://www.w3.org/2000/svg">
<path d="M13.2417 2.94454L11.0327 2.37354C10.561 2.24787 10.0692 2.21637 9.5854 2.28085C9.10158 2.34532 8.6352 2.50451 8.21293 2.74931C7.79066 2.99412 7.42076 3.31973 7.12439 3.70755C6.82802 4.09538 6.61097 4.5378 6.48566 5.00954L5.93466 7.09154C7.75193 4.82746 10.3661 3.34385 13.2417 2.94454Z" fill="#C6CDDA"/>
<path d="M3.55467 12.0569L3.01367 14.0969C2.7611 15.049 2.89701 16.0625 3.39152 16.9144C3.88602 17.7663 4.69864 18.387 5.65067 18.6399L7.75767 19.2019C5.50925 17.4329 4.00969 14.8818 3.55767 12.0569H3.55467Z" fill="#C6CDDA"/>
<path d="M20.1257 5.84455L17.7627 5.21655C18.9567 6.13498 19.9565 7.28142 20.7039 8.58933C21.4513 9.89723 21.9315 11.3406 22.1167 12.8356L22.7667 10.3776C23.0161 9.42628 22.8781 8.41492 22.3831 7.5652C21.888 6.71547 21.0762 6.09671 20.1257 5.84455Z" fill="#C6CDDA"/>
<path d="M12.4822 21.5092L14.7472 22.1202C15.2188 22.2456 15.7103 22.2769 16.1939 22.2122C16.6775 22.1476 17.1437 21.9884 17.5657 21.7436C17.9878 21.4988 18.3575 21.1733 18.6537 20.7856C18.9499 20.398 19.1669 19.9558 19.2922 19.4842L19.9312 17.0842C18.1294 19.4838 15.4531 21.0748 12.4842 21.5112L12.4822 21.5092Z" fill="#C6CDDA"/>
<path d="M12.8889 3.84204C11.2278 3.84323 9.60437 4.33689 8.22378 5.26061C6.8432 6.18434 5.76748 7.49665 5.13263 9.03166C4.49777 10.5667 4.33228 12.2554 4.65707 13.8845C4.98187 15.5135 5.78236 17.0097 6.95736 18.1839C8.13236 19.358 9.62911 20.1574 11.2584 20.4811C12.8877 20.8047 14.5763 20.638 16.1109 20.0021C17.6454 19.3661 18.957 18.2894 19.8797 16.9082C20.8024 15.527 21.2949 13.9031 21.2949 12.242C21.2933 10.0137 20.407 7.87711 18.8308 6.30198C17.2545 4.72685 15.1173 3.84204 12.8889 3.84204ZM8.12694 8.03404C8.21691 7.5679 8.4431 7.1389 8.77692 6.80133C9.11073 6.46376 9.53716 6.23277 10.0023 6.13759C10.4674 6.04241 10.9503 6.0873 11.3899 6.2666C11.8294 6.4459 12.206 6.75154 12.4718 7.14487C12.7377 7.5382 12.8809 8.00154 12.8834 8.47628C12.8859 8.95102 12.7475 9.41584 12.4858 9.81193C12.2241 10.208 11.8508 10.5176 11.4131 10.7015C10.9754 10.8854 10.493 10.9353 10.0269 10.845C9.40233 10.724 8.85134 10.36 8.49506 9.83284C8.13878 9.30574 8.00637 8.65873 8.12694 8.03404ZM11.6199 15.295C11.5142 15.8401 11.2227 16.3317 10.7952 16.686C10.3677 17.0402 9.83053 17.2353 9.27529 17.238C8.72005 17.2406 8.18107 17.0507 7.75019 16.7005C7.3193 16.3503 7.02316 15.8615 6.91224 15.3175C6.80131 14.7734 6.88246 14.2077 7.14185 13.7168C7.40124 13.2259 7.82283 12.8401 8.33478 12.6251C8.84674 12.4102 9.41738 12.3794 9.94949 12.538C10.4816 12.6966 10.9422 13.0349 11.2529 13.495C11.4295 13.7562 11.5529 14.0496 11.616 14.3584C11.6791 14.6673 11.6808 14.9855 11.6209 15.295H11.6199ZM12.6389 13.352C12.3965 13.3056 12.1777 13.1765 12.0198 12.9868C11.8618 12.797 11.7746 12.5584 11.7728 12.3116C11.7711 12.0647 11.855 11.8249 12.0103 11.633C12.1655 11.4411 12.3825 11.309 12.6243 11.2591C12.866 11.2093 13.1176 11.2448 13.3361 11.3596C13.5546 11.4744 13.7266 11.6614 13.8227 11.8888C13.9188 12.1162 13.933 12.3699 13.8631 12.6066C13.7931 12.8433 13.6432 13.0484 13.4389 13.187C13.323 13.2658 13.1926 13.3209 13.0554 13.3492C12.9181 13.3775 12.7766 13.3785 12.6389 13.352ZM17.6479 16.452C17.558 16.9182 17.3318 17.3472 16.998 17.6848C16.6641 18.0223 16.2377 18.2533 15.7726 18.3485C15.3075 18.4437 14.8246 18.3988 14.385 18.2195C13.9454 18.0402 13.5689 17.7345 13.303 17.3412C13.0372 16.9479 12.8939 16.4845 12.8915 16.0098C12.889 15.5351 13.0273 15.0702 13.2891 14.6742C13.5508 14.2781 13.9241 13.9685 14.3618 13.7846C14.7995 13.6007 15.2819 13.5507 15.7479 13.641C16.3725 13.7621 16.9235 14.1261 17.2798 14.6532C17.6361 15.1803 17.7685 15.8273 17.6479 16.452ZM16.0589 12.002C15.5139 11.8963 15.0223 11.6048 14.668 11.1773C14.3137 10.7498 14.1186 10.2126 14.116 9.6574C14.1134 9.10216 14.3033 8.56318 14.6535 8.13229C15.0037 7.7014 15.4925 7.40527 16.0365 7.29434C16.5806 7.18341 17.1462 7.26456 17.6372 7.52395C18.1281 7.78334 18.5139 8.20493 18.7289 8.71689C18.9438 9.22884 18.9746 9.79949 18.816 10.3316C18.6573 10.8637 18.3191 11.3243 17.8589 11.635C17.5977 11.8114 17.3043 11.9346 16.9954 11.9976C16.6866 12.0605 16.3684 12.0621 16.0589 12.002Z" fill="#C6CDDA"/>
</svg>
