<svg width="25" height="25" viewBox="0 0 25 25" fill="none" xmlns="http://www.w3.org/2000/svg">
<path d="M12.8887 2.24756C10.9109 2.24756 8.97747 2.83405 7.33297 3.93286C5.68848 5.03168 4.40676 6.59346 3.64988 8.42072C2.893 10.248 2.69497 12.2587 3.08082 14.1985C3.46668 16.1383 4.41908 17.9201 5.81761 19.3186C7.21613 20.7172 8.99796 21.6696 10.9378 22.0554C12.8776 22.4413 14.8882 22.2432 16.7155 21.4864C18.5428 20.7295 20.1046 19.4478 21.2034 17.8033C22.3022 16.1588 22.8887 14.2254 22.8887 12.2476C22.8887 10.9343 22.63 9.63398 22.1275 8.42072C21.6249 7.20747 20.8883 6.10508 19.9597 5.17649C19.0312 4.24791 17.9288 3.51131 16.7155 3.00876C15.5023 2.50622 14.2019 2.24756 12.8887 2.24756ZM16.0687 17.4006C16.0312 17.4936 15.9743 17.5776 15.9018 17.6469C15.8293 17.7162 15.7428 17.7693 15.6482 17.8025C15.5535 17.8357 15.4529 17.8484 15.3529 17.8396C15.253 17.8308 15.1561 17.8008 15.0687 17.7516L12.3537 15.6426L10.6097 17.2476C10.5692 17.2774 10.522 17.2966 10.4722 17.3034C10.4224 17.3103 10.3716 17.3045 10.3247 17.2866L10.6587 14.2986L10.6697 14.3066L10.6757 14.2476C10.6757 14.2476 15.5607 9.79956 15.7597 9.61056C15.9587 9.42156 15.8947 9.38056 15.8947 9.38056C15.9057 9.14956 15.5327 9.38056 15.5327 9.38056L9.06068 13.5476L6.36068 12.6296C6.36068 12.6296 5.94668 12.4806 5.90768 12.1546C5.86868 11.8286 6.37368 11.6546 6.37368 11.6546L17.0947 7.39556C17.0947 7.39556 17.9757 7.00256 17.9757 7.65356L16.0687 17.4006Z" fill="#C6CDDA"/>
</svg>
