<svg width="25" height="25" viewBox="0 0 25 25" fill="none" xmlns="http://www.w3.org/2000/svg">
<path d="M21.7887 2.24756H3.98867C3.69693 2.24756 3.41714 2.36345 3.21085 2.56974C3.00456 2.77603 2.88867 3.05582 2.88867 3.34756V21.1476C2.88867 21.292 2.91712 21.4351 2.9724 21.5685C3.02768 21.702 3.10871 21.8232 3.21085 21.9254C3.313 22.0275 3.43426 22.1085 3.56772 22.1638C3.70118 22.2191 3.84422 22.2476 3.98867 22.2476H13.5687V14.4976H10.9687V11.4976H13.5687V9.24756C13.5148 8.71932 13.5772 8.18569 13.7514 7.6841C13.9256 7.18251 14.2074 6.7251 14.5771 6.34397C14.9468 5.96284 15.3954 5.6672 15.8915 5.4778C16.3876 5.28839 16.919 5.20981 17.4487 5.24756C18.227 5.24277 19.005 5.28284 19.7787 5.36756V8.06756H18.1887C16.9287 8.06756 16.6887 8.66756 16.6887 9.53756V11.4676H19.6887L19.2987 14.4676H16.6887V22.2476H21.7887C21.9331 22.2476 22.0762 22.2191 22.2096 22.1638C22.3431 22.1085 22.4643 22.0275 22.5665 21.9254C22.6686 21.8232 22.7497 21.702 22.8049 21.5685C22.8602 21.4351 22.8887 21.292 22.8887 21.1476V3.34756C22.8887 3.2031 22.8602 3.06007 22.8049 2.92661C22.7497 2.79315 22.6686 2.67189 22.5665 2.56974C22.4643 2.4676 22.3431 2.38657 22.2096 2.33129C22.0762 2.27601 21.9331 2.24756 21.7887 2.24756Z" fill="#C6CDDA"/>
</svg>
