<svg width="25" height="25" viewBox="0 0 25 25" fill="none" xmlns="http://www.w3.org/2000/svg">
<path d="M22.8887 6.19755C22.137 6.52364 21.3421 6.73921 20.5287 6.83755C21.3868 6.32487 22.0299 5.51833 22.3387 4.56755C21.5322 5.04761 20.6494 5.38585 19.7287 5.56755C19.1132 4.90012 18.2936 4.45584 17.3985 4.3044C16.5033 4.15296 15.5832 4.30291 14.7825 4.73074C13.9817 5.15857 13.3456 5.84008 12.9739 6.66838C12.6022 7.49669 12.516 8.42494 12.7287 9.30755C11.0981 9.22507 9.50311 8.8005 8.04733 8.06141C6.59154 7.32232 5.30752 6.28524 4.27867 5.01755C3.91781 5.64772 3.72819 6.36137 3.72867 7.08755C3.72739 7.76193 3.89289 8.42617 4.21043 9.02111C4.52797 9.61606 4.98769 10.1233 5.54867 10.4975C4.89665 10.4798 4.25856 10.3048 3.68867 9.98755V10.0375C3.69356 10.9824 4.02467 11.8966 4.62599 12.6255C5.22731 13.3544 6.06193 13.8532 6.98867 14.0375C6.63193 14.1461 6.26155 14.2034 5.88867 14.2075C5.63056 14.2045 5.37309 14.1811 5.11867 14.1375C5.38258 14.9504 5.89329 15.6607 6.57975 16.1697C7.2662 16.6787 8.09425 16.9611 8.94867 16.9775C7.50587 18.1128 5.72456 18.7324 3.88867 18.7375C3.55441 18.7386 3.22041 18.7186 2.88867 18.6775C4.7631 19.8878 6.94748 20.5303 9.17867 20.5275C10.7184 20.5435 12.2458 20.2526 13.6718 19.6716C15.0978 19.0907 16.3937 18.2314 17.4839 17.144C18.5741 16.0567 19.4366 14.7629 20.0212 13.3385C20.6058 11.914 20.9007 10.3873 20.8887 8.84755V8.31755C21.6734 7.73236 22.3501 7.01497 22.8887 6.19755Z" fill="#C6CDDA"/>
</svg>
