<svg width="25" height="25" viewBox="0 0 25 25" fill="none" xmlns="http://www.w3.org/2000/svg">
<path d="M21.2987 2.24758H4.35867C4.16825 2.24493 3.97917 2.27982 3.80224 2.35026C3.6253 2.4207 3.46398 2.5253 3.32747 2.65809C3.19096 2.79088 3.08195 2.94926 3.00666 3.12419C2.93137 3.29911 2.89128 3.48715 2.88867 3.67758V20.8176C2.89128 21.008 2.93137 21.196 3.00666 21.371C3.08195 21.5459 3.19096 21.7043 3.32747 21.8371C3.46398 21.9699 3.6253 22.0745 3.80224 22.1449C3.97917 22.2153 4.16825 22.2502 4.35867 22.2476H21.2987C21.4891 22.2502 21.6782 22.2153 21.8551 22.1449C22.032 22.0745 22.1934 21.9699 22.3299 21.8371C22.4664 21.7043 22.5754 21.5459 22.6507 21.371C22.726 21.196 22.7661 21.008 22.7687 20.8176V3.67758C22.7661 3.48715 22.726 3.29911 22.6507 3.12419C22.5754 2.94926 22.4664 2.79088 22.3299 2.65809C22.1934 2.5253 22.032 2.4207 21.8551 2.35026C21.6782 2.27982 21.4891 2.24493 21.2987 2.24758ZM8.91867 18.9876H5.91867V9.98758H8.91867V18.9876ZM7.41867 8.72758C7.00493 8.72758 6.60814 8.56322 6.31559 8.27066C6.02303 7.97811 5.85867 7.58131 5.85867 7.16758C5.85867 6.75384 6.02303 6.35705 6.31559 6.06449C6.60814 5.77193 7.00493 5.60758 7.41867 5.60758C7.63837 5.58266 7.86085 5.60443 8.07155 5.67146C8.28225 5.73849 8.47641 5.84927 8.64133 5.99654C8.80625 6.14381 8.9382 6.32425 9.02854 6.52606C9.11889 6.72786 9.16559 6.94647 9.16559 7.16758C9.16559 7.38868 9.11889 7.60729 9.02854 7.80909C8.9382 8.0109 8.80625 8.19134 8.64133 8.33861C8.47641 8.48589 8.28225 8.59666 8.07155 8.66369C7.86085 8.73072 7.63837 8.75249 7.41867 8.72758ZM19.7387 18.9876H16.7387V14.1576C16.7387 12.9476 16.3087 12.1576 15.2187 12.1576C14.8813 12.16 14.5529 12.2659 14.2775 12.4607C14.0022 12.6556 13.7932 12.9303 13.6787 13.2476C13.6004 13.4826 13.5665 13.7301 13.5787 13.9776V18.9776H10.5787V9.97758H13.5787V11.2476C13.8512 10.7747 14.2476 10.3851 14.7251 10.1208C15.2026 9.85646 15.7432 9.72743 16.2887 9.74758C18.2887 9.74758 19.7387 11.0376 19.7387 13.8076V18.9876Z" fill="#C6CDDA"/>
</svg>
