<svg width="103" height="20" viewBox="0 0 103 20" fill="none" xmlns="http://www.w3.org/2000/svg">
<g clip-path="url(#clip0_1_7741)">
<path d="M83.3652 19.4821H88.6607C89.3149 19.4919 89.9503 19.2683 90.4473 18.8533C90.9291 18.4367 91.2588 17.8786 91.3867 17.2632L91.6722 15.8169H84.1848L83.3652 19.4821Z" fill="#2533CC"/>
<path d="M9.43982 4.16528L6.80588 15.8258H0.810443L0 19.5H5.66389C6.86267 19.4998 8.02676 19.1076 8.97013 18.3861C9.89222 17.6675 10.5275 16.6569 10.766 15.5293L13.2342 4.17427L9.43982 4.16528Z" fill="#2533CC"/>
<path d="M103 0.5H99.2148L96.323 13.5979C97.4001 13.518 98.4259 13.1165 99.2609 12.448C100.145 11.7305 100.755 10.7429 100.992 9.64516L103 0.5Z" fill="#2533CC"/>
<path d="M78.0052 9.64516L80.0313 0.5H76.2277L73.3267 13.5979C74.402 13.5171 75.4266 13.1192 76.2646 12.457C77.1529 11.7377 77.7662 10.7469 78.0052 9.64516Z" fill="#2533CC"/>
<path d="M18.3639 4.1562C17.5198 4.15297 16.7001 4.43211 16.0414 4.94707C15.3828 5.46202 14.9251 6.18166 14.7445 6.98599L13.9801 10.3727C13.8939 10.7672 13.8989 11.1754 13.9947 11.5677C14.0906 11.96 14.2749 12.3265 14.5342 12.6406C14.7936 12.9547 15.1214 13.2084 15.494 13.3833C15.8665 13.5582 16.2743 13.6499 16.6878 13.6517H18.7415L18.7231 13.6337H19.5888L20.3716 10.0134H17.839L18.3178 7.82145H22.0569L20.2887 15.8077H12.7461L11.9356 19.482H19.2296C20.4545 19.4281 21.5228 19.0418 22.3609 18.386C23.1989 17.7302 23.816 16.7959 24.1199 15.646L26.6894 4.14722H18.3639V4.1562Z" fill="#2533CC"/>
<path d="M61.1425 7.77672H64.9L65.7565 4.16537H63.2514C62.8804 4.16149 62.5199 4.28554 62.2334 4.51564C61.947 4.74573 61.7531 5.0671 61.6858 5.42305L61.1425 7.77672Z" fill="#FB8D04"/>
<path d="M59.3282 15.8168H66.8708L69.4495 4.15625H73.3083L70.8309 15.4035C70.5841 16.5045 69.9774 17.4974 69.1021 18.2329C68.2268 18.9685 67.1302 19.4068 65.9775 19.482H54.7142L57.2929 7.8215H61.1148L59.3282 15.8168Z" fill="#2533CC"/>
<path d="M40.2643 4.15625L38.9473 10.0135H31.3402L32.6388 4.15625H28.8536L25.4737 19.473C26.1176 19.4215 26.7472 19.2604 27.334 18.9969C28.0992 18.6616 28.7692 18.1498 29.2865 17.5057C29.6511 17.0351 29.9057 16.4923 30.0324 15.9156L30.539 13.6248H37.6488C38.8703 13.6348 40.0601 13.2458 41.0287 12.5198C41.9737 11.8082 42.6296 10.7928 42.8798 9.65412V9.63615L44.0771 4.16523L40.2643 4.15625Z" fill="#2533CC"/>
<path d="M46.1769 4.16528L44.906 10.0135H42.797L41.9865 13.6338H43.6627C44.9336 13.6249 46.094 13.2296 46.9873 12.5289C47.9135 11.8085 48.5521 10.7947 48.7924 9.66316L48.82 9.53739L50.0081 4.16528H46.1769Z" fill="#2533CC"/>
<path d="M52.1446 4.16528L50.8737 10.0135H48.7647L47.9543 13.6338H49.6304C50.9014 13.6249 52.0618 13.2296 52.9551 12.5289C53.8813 11.8085 54.5199 10.7947 54.7602 9.66316L54.7878 9.53739L55.9758 4.16528H52.1446Z" fill="#2533CC"/>
<path d="M92.4918 4.17427L91.2117 10.0494L83.8256 10.0225L85.1242 4.16528H81.3851L78.7419 15.8258H72.8386L72.0374 19.5H77.821C79.0458 19.3293 80.0221 18.9431 80.7865 18.3591C81.5509 17.7752 82.1126 17.0116 82.4902 16.0594L83.0428 13.6249L89.9039 13.6518C92.3445 13.6249 94.3337 12.1695 95.0337 10.0854L96.3046 4.17427H92.4918Z" fill="#2533CC"/>
</g>
<defs>
<clipPath id="clip0_1_7741">
<rect width="103" height="19" fill="white" transform="translate(0 0.5)"/>
</clipPath>
</defs>
</svg>
