<svg width="22" height="22" viewBox="0 0 22 22" fill="none" xmlns="http://www.w3.org/2000/svg">
<path d="M19.7624 18.6187L16.3616 15.2454C17.6817 13.5994 18.321 11.5103 18.148 9.40742C17.975 7.30459 17.0029 5.34795 15.4316 3.93982C13.8603 2.5317 11.8092 1.77912 9.70009 1.83683C7.59094 1.89454 5.58407 2.75816 4.09212 4.25011C2.60017 5.74206 1.73655 7.74893 1.67884 9.85808C1.62113 11.9672 2.37371 14.0183 3.78183 15.5896C5.18996 17.1609 7.1466 18.133 9.24943 18.306C11.3523 18.4789 13.4415 17.8397 15.0874 16.5196L18.4607 19.8929C18.5434 19.9826 18.6432 20.0548 18.7543 20.1053C18.8654 20.1557 18.9854 20.1833 19.1074 20.1864C19.2293 20.1896 19.3506 20.1682 19.4642 20.1236C19.5777 20.079 19.6811 20.0121 19.7683 19.9267C19.8555 19.8414 19.9246 19.7394 19.9717 19.6269C20.0187 19.5143 20.0426 19.3935 20.0421 19.2715C20.0415 19.1495 20.0165 19.0289 19.9685 18.9167C19.9204 18.8046 19.8503 18.7033 19.7624 18.6187ZM9.94491 16.5196C8.67581 16.5196 7.43522 16.1432 6.38 15.4382C5.32478 14.7331 4.50234 13.7309 4.01668 12.5585C3.53102 11.386 3.40395 10.0958 3.65154 8.85107C3.89913 7.60636 4.51025 6.46302 5.40764 5.56563C6.30503 4.66824 7.44837 4.05712 8.69308 3.80953C9.93779 3.56194 11.228 3.68901 12.4005 4.17467C13.573 4.66033 14.5751 5.48277 15.2802 6.53799C15.9852 7.59321 16.3616 8.8338 16.3616 10.1029C16.3616 11.8047 15.6855 13.4368 14.4822 14.6402C13.2788 15.8435 11.6467 16.5196 9.94491 16.5196Z"/>
</svg>
