<svg width="60" height="61" viewBox="0 0 60 61" fill="none" xmlns="http://www.w3.org/2000/svg">
<path d="M53.9893 12.3926C54.0218 12.1839 53.9798 11.9703 53.8707 11.7894C53.7616 11.6085 53.5924 11.4717 53.3927 11.403C45.6097 7.98775 37.8463 4.53727 30.1025 1.05157C29.9277 0.963252 29.7347 0.917236 29.539 0.917236C29.3432 0.917236 29.1502 0.963252 28.9755 1.05157C21.1804 4.51742 13.3894 7.97365 5.60263 11.4203C5.41348 11.4705 5.2489 11.5875 5.13925 11.7496C5.02959 11.9117 4.98226 12.108 5.00598 12.3023C5.05979 17.6087 5.00022 22.9218 5.05979 28.2281C5.09421 35.5395 7.47718 42.6463 11.8573 48.5005C15.9012 54.1651 21.7065 58.3316 28.3673 60.3498C29.1068 60.5828 29.9 60.5828 30.6395 60.3498C36.9684 58.4557 42.5312 54.5985 46.5241 49.3354C51.3791 43.2378 54.0082 35.666 53.9768 27.8717C53.9768 25.5764 53.9768 23.2868 53.9768 20.9906C53.9531 18.1281 53.9573 15.2621 53.9893 12.3926ZM49.7792 22.6604V28.3607C49.809 34.8201 47.6341 41.0964 43.6139 46.1524C40.3056 50.522 35.6925 53.7254 30.4426 55.299C29.8294 55.4925 29.1716 55.4925 28.5585 55.299C23.0363 53.6233 18.2244 50.1661 14.8741 45.4674C11.2404 40.6141 9.26289 34.7213 9.2334 28.6586C9.18536 24.2582 9.2334 19.8578 9.2334 15.4575C9.21409 15.2989 9.25181 15.1387 9.33983 15.0055C9.42784 14.8722 9.56041 14.7746 9.71379 14.7302C16.1497 11.8799 22.5933 9.01194 29.0446 6.1264C29.1897 6.0531 29.35 6.01492 29.5125 6.01492C29.6751 6.01492 29.8354 6.0531 29.9804 6.1264C36.4221 9.01194 42.8593 11.8718 49.2921 14.7061C49.4571 14.7641 49.5965 14.8782 49.6859 15.0286C49.7753 15.1789 49.809 15.3559 49.7811 15.5286C49.7792 17.9075 49.7792 20.2806 49.7792 22.6604Z" fill="#2533CC"/>
<path d="M46.2022 17.2034L43.1719 15.8622L15.0115 39.7125C15.6273 40.9121 16.3414 42.0587 17.1463 43.1406C17.6718 43.8483 18.2329 44.5288 18.8277 45.1793L46.6307 21.6403V17.8933C46.6528 17.7461 46.6218 17.5959 46.5433 17.4695C46.4648 17.3431 46.3439 17.2488 46.2022 17.2034Z" fill="#2533CC"/>
<path d="M28.7018 51.4594C29.2198 51.6231 29.7757 51.6231 30.2938 51.4594C34.7314 50.1375 38.6328 47.4366 41.4321 43.7482C44.8273 39.4824 46.6656 34.186 46.6433 28.7341C46.6433 28.0126 46.6433 27.2853 46.6433 26.5637L21.6006 47.7835C23.7152 49.4455 26.1244 50.6936 28.7018 51.4623V51.4594Z" fill="#2533CC"/>
<path d="M29.9117 9.96451C29.7896 9.90317 29.6549 9.87122 29.5182 9.87122C29.3816 9.87122 29.2469 9.90317 29.1248 9.96451C23.6804 12.3895 18.2424 14.8084 12.8108 17.2213C12.6874 17.2628 12.5809 17.3436 12.5077 17.4514C12.4345 17.5591 12.3985 17.6878 12.4054 17.8179V28.9629C12.4126 30.1812 12.5122 31.3972 12.7032 32.6004C12.8896 33.7836 13.1626 34.9515 13.5199 36.0948L39.3686 14.1718L29.9117 9.96451Z" fill="#2533CC"/>
</svg>
