<svg width="56" height="56" viewBox="0 0 56 56" fill="none" xmlns="http://www.w3.org/2000/svg">
<path d="M52.65 12.9734H3.35101L6.15101 4.57341C6.31063 4.09388 6.61756 3.67697 7.02805 3.38213C7.43853 3.08729 7.93162 2.92955 8.43701 2.93141H47.564C48.0694 2.92955 48.5625 3.08729 48.973 3.38213C49.3835 3.67697 49.6904 4.09388 49.85 4.57341L52.65 12.9734Z" fill="#E9EBEF"/>
<path d="M36.565 5.31738H9.39401C9.06761 5.31738 8.80301 5.58176 8.80301 5.90788C8.80301 6.23401 9.06761 6.49838 9.39401 6.49838H36.565C36.8914 6.49838 37.156 6.23401 37.156 5.90788C37.156 5.58176 36.8914 5.31738 36.565 5.31738Z" fill="#2533CC"/>
<path d="M46.607 5.31738H40.11C39.7836 5.31738 39.519 5.58176 39.519 5.90788C39.519 6.23401 39.7836 6.49838 40.11 6.49838H46.607C46.9334 6.49838 47.198 6.23401 47.198 5.90788C47.198 5.58176 46.9334 5.31738 46.607 5.31738Z" fill="#2533CC"/>
<path d="M50.641 35.8779C50.967 35.8779 51.2898 35.9426 51.5905 36.0682C51.8913 36.1939 52.1642 36.378 52.3933 36.6099C52.6224 36.8418 52.8032 37.1169 52.9252 37.4192C53.0472 37.7215 53.108 38.045 53.104 38.3709V50.5449C53.104 51.1982 52.8445 51.8246 52.3826 52.2865C51.9207 52.7484 51.2943 53.0079 50.641 53.0079H5.35902C4.70579 53.0079 4.07932 52.7484 3.61742 52.2865C3.15551 51.8246 2.89602 51.1982 2.89602 50.5449V38.3709C2.89602 37.7177 3.15551 37.0912 3.61742 36.6293C4.07932 36.1674 4.70579 35.9079 5.35902 35.9079H50.641V35.8779ZM50.641 33.5449H5.35902C4.07909 33.5449 2.85157 34.0534 1.94652 34.9584C1.04147 35.8635 0.53302 37.091 0.53302 38.3709L0.53302 50.5449C0.53302 51.8249 1.04147 53.0524 1.94652 53.9574C2.85157 54.8625 4.07909 55.3709 5.35902 55.3709H50.641C51.921 55.3709 53.1485 54.8625 54.0535 53.9574C54.9586 53.0524 55.467 51.8249 55.467 50.5449V38.3709C55.467 37.091 54.9586 35.8635 54.0535 34.9584C53.1485 34.0534 51.921 33.5449 50.641 33.5449Z" fill="#2533CC"/>
<path d="M34.203 43.7134H19.436C19.1096 43.7134 18.845 43.9778 18.845 44.3039C18.845 44.63 19.1096 44.8944 19.436 44.8944H34.203C34.5294 44.8944 34.794 44.63 34.794 44.3039C34.794 43.9778 34.5294 43.7134 34.203 43.7134Z" fill="#2533CC"/>
<path d="M7.03101 42.5313V46.6653C7.03101 46.9917 7.29538 47.2563 7.62151 47.2563C7.94763 47.2563 8.21201 46.9917 8.21201 46.6653V42.5313C8.21201 42.2049 7.94763 41.9403 7.62151 41.9403C7.29538 41.9403 7.03101 42.2049 7.03101 42.5313Z" fill="#2533CC"/>
<path d="M10.575 42.5313V46.6653C10.575 46.9917 10.8394 47.2563 11.1655 47.2563C11.4916 47.2563 11.756 46.9917 11.756 46.6653V42.5313C11.756 42.2049 11.4916 41.9403 11.1655 41.9403C10.8394 41.9403 10.575 42.2049 10.575 42.5313Z" fill="#2533CC"/>
<path d="M14.119 42.5313V46.6653C14.119 46.9917 14.3834 47.2563 14.7095 47.2563C15.0356 47.2563 15.3 46.9917 15.3 46.6653V42.5313C15.3 42.2049 15.0356 41.9403 14.7095 41.9403C14.3834 41.9403 14.119 42.2049 14.119 42.5313Z" fill="#2533CC"/>
<path d="M39.224 46.0763C40.0397 46.0763 40.701 45.415 40.701 44.5993C40.701 43.7836 40.0397 43.1223 39.224 43.1223C38.4083 43.1223 37.747 43.7836 37.747 44.5993C37.747 45.415 38.4083 46.0763 39.224 46.0763Z" fill="#2533CC"/>
<path d="M43.359 46.0763C44.1747 46.0763 44.836 45.415 44.836 44.5993C44.836 43.7836 44.1747 43.1223 43.359 43.1223C42.5433 43.1223 41.882 43.7836 41.882 44.5993C41.882 45.415 42.5433 46.0763 43.359 46.0763Z" fill="#2533CC"/>
<path d="M47.493 46.0763C48.3087 46.0763 48.97 45.415 48.97 44.5993C48.97 43.7836 48.3087 43.1223 47.493 43.1223C46.6773 43.1223 46.016 43.7836 46.016 44.5993C46.016 45.415 46.6773 46.0763 47.493 46.0763Z" fill="#2533CC"/>
<path d="M52.071 3.69937C51.7678 2.78641 51.1844 1.99235 50.4037 1.4302C49.6231 0.868056 48.685 0.56647 47.723 0.568368H8.43302C7.43309 0.567431 6.45824 0.88135 5.64675 1.4656C4.83526 2.04985 4.22832 2.87478 3.91202 3.82337L0.53302 13.5684V30.0264C0.539891 31.3018 1.05138 32.5226 1.95568 33.4221C2.85999 34.3215 4.08358 34.8264 5.35902 34.8264H50.641C51.9165 34.8264 53.14 34.3215 54.0444 33.4221C54.9487 32.5226 55.4601 31.3018 55.467 30.0264V13.5684L52.071 3.69937ZM6.15002 4.56837C6.31033 4.09026 6.61717 3.67479 7.02698 3.38094C7.43679 3.08709 7.92875 2.92979 8.43302 2.93137H47.564C48.0688 2.92916 48.5614 3.08616 48.9718 3.38006C49.3822 3.67395 49.6895 4.08977 49.85 4.56837L52.65 12.9684H3.35102L6.15002 4.56837ZM53.105 30.0264C53.099 30.6756 52.8368 31.2962 52.3755 31.7531C51.9143 32.2101 51.2913 32.4664 50.642 32.4664H5.35902C4.70976 32.4664 4.08674 32.2101 3.6255 31.7531C3.16425 31.2962 2.90208 30.6756 2.89602 30.0264V15.3354H53.105V30.0264Z" fill="#2533CC"/>
<path d="M34.203 23.0371H19.436C19.1096 23.0371 18.845 23.3015 18.845 23.6276C18.845 23.9537 19.1096 24.2181 19.436 24.2181H34.203C34.5294 24.2181 34.794 23.9537 34.794 23.6276C34.794 23.3015 34.5294 23.0371 34.203 23.0371Z" fill="#2533CC"/>
<path d="M7.03107 21.859V25.993C7.03107 26.3194 7.29544 26.584 7.62157 26.584C7.94769 26.584 8.21207 26.3194 8.21207 25.993V21.859C8.21207 21.5326 7.94769 21.268 7.62157 21.268C7.29544 21.268 7.03107 21.5326 7.03107 21.859Z" fill="#2533CC"/>
<path d="M10.575 21.859V25.993C10.575 26.3194 10.8394 26.584 11.1655 26.584C11.4916 26.584 11.756 26.3194 11.756 25.993V21.859C11.756 21.5326 11.4916 21.268 11.1655 21.268C10.8394 21.268 10.575 21.5326 10.575 21.859Z" fill="#2533CC"/>
<path d="M14.119 21.859V25.993C14.119 26.3194 14.3833 26.584 14.7095 26.584C15.0356 26.584 15.3 26.3194 15.3 25.993V21.859C15.3 21.5326 15.0356 21.268 14.7095 21.268C14.3833 21.268 14.119 21.5326 14.119 21.859Z" fill="#2533CC"/>
<path d="M39.224 25.4013C40.0397 25.4013 40.701 24.74 40.701 23.9243C40.701 23.1085 40.0397 22.4473 39.224 22.4473C38.4083 22.4473 37.747 23.1085 37.747 23.9243C37.747 24.74 38.4083 25.4013 39.224 25.4013Z" fill="#2533CC"/>
<path d="M43.359 25.4013C44.1747 25.4013 44.836 24.74 44.836 23.9243C44.836 23.1085 44.1747 22.4473 43.359 22.4473C42.5433 22.4473 41.882 23.1085 41.882 23.9243C41.882 24.74 42.5433 25.4013 43.359 25.4013Z" fill="#2533CC"/>
<path d="M47.493 25.4013C48.3087 25.4013 48.97 24.74 48.97 23.9243C48.97 23.1085 48.3087 22.4473 47.493 22.4473C46.6773 22.4473 46.016 23.1085 46.016 23.9243C46.016 24.74 46.6773 25.4013 47.493 25.4013Z" fill="#2533CC"/>
</svg>
