<svg width="66" height="56" viewBox="0 0 66 56" fill="none" xmlns="http://www.w3.org/2000/svg">
<path d="M57.4492 18.3545C55.8679 13.0998 52.6359 8.49432 48.232 5.22054C43.828 1.94677 38.4866 0.178894 32.9991 0.178894C27.5117 0.178894 22.1703 1.94677 17.7663 5.22054C13.3624 8.49432 10.1304 13.0998 8.54915 18.3545C7.46521 18.3541 6.39208 18.5699 5.39252 18.9892C4.39297 19.4085 3.48706 20.0229 2.72779 20.7965C1.96852 21.5701 1.37113 22.4874 0.970564 23.4946C0.569997 24.5018 0.374296 25.5788 0.394907 26.6625C0.415518 27.7463 0.652028 28.815 1.0906 29.8063C1.52918 30.7975 2.16101 31.6914 2.94915 32.4355C3.73728 33.1797 4.66589 33.7592 5.68067 34.1402C6.69544 34.5212 7.776 34.6961 8.85915 34.6545C8.92715 34.6545 8.99015 34.6375 9.05915 34.6365C10.5341 38.5999 12.9715 42.1342 16.1521 44.9213C19.3326 47.7084 23.1564 49.6607 27.2792 50.6025C27.4643 51.9973 28.1528 53.2764 29.215 54.1991C30.2773 55.1219 31.6401 55.6247 33.0471 55.6129C34.4541 55.6012 35.8083 55.0758 36.855 54.1354C37.9017 53.1951 38.5688 51.9047 38.7307 50.507C38.8925 49.1093 38.5381 47.7006 37.7341 46.5459C36.93 45.3912 35.7317 44.5701 34.3647 44.2371C32.9976 43.9041 31.5559 44.082 30.3109 44.7375C29.0659 45.3931 28.1032 46.4809 27.6042 47.7965C23.4629 46.783 19.6903 44.6251 16.7172 41.5693C13.7441 38.5135 11.6905 34.6831 10.7909 30.5157C9.89126 26.3482 10.182 22.0118 11.6298 18.0017C13.0777 13.9916 15.6243 10.4697 18.9786 7.83811C22.333 5.20657 26.36 3.57158 30.5994 3.11992C34.8389 2.66827 39.1199 3.41816 42.9534 5.28392C46.7869 7.14969 50.0183 10.0561 52.2785 13.6711C54.5387 17.2862 55.7365 21.464 55.7351 25.7275V33.2525C55.7365 33.6234 55.8844 33.9787 56.1467 34.241C56.4089 34.5032 56.7643 34.6512 57.1352 34.6525H57.1412C58.2247 34.694 59.3056 34.519 60.3207 34.1377C61.3358 33.7564 62.2646 33.1764 63.0528 32.4317C63.841 31.687 64.4727 30.7926 64.911 29.8008C65.3493 28.8089 65.5853 27.7397 65.6052 26.6555C65.6252 25.5713 65.4287 24.4941 65.0272 23.4868C64.6257 22.4795 64.0274 21.5625 63.2671 20.7893C62.5069 20.0161 61.6 19.4023 60.5996 18.9839C59.5993 18.5655 58.5255 18.3508 57.4412 18.3525L57.4492 18.3545ZM33.0012 46.8825C33.5915 46.8825 34.1686 47.0575 34.6595 47.3855C35.1504 47.7135 35.533 48.1797 35.7589 48.7252C35.9849 49.2706 36.044 49.8708 35.9288 50.4498C35.8136 51.0289 35.5293 51.5607 35.1119 51.9782C34.6944 52.3957 34.1625 52.6799 33.5835 52.7951C33.0045 52.9103 32.4043 52.8512 31.8588 52.6253C31.3134 52.3993 30.8472 52.0167 30.5192 51.5259C30.1912 51.035 30.0161 50.4579 30.0161 49.8675C30.016 49.4754 30.0931 49.0872 30.2431 48.725C30.3931 48.3628 30.6129 48.0337 30.8901 47.7565C31.1674 47.4793 31.4965 47.2594 31.8587 47.1094C32.2209 46.9595 32.6091 46.8823 33.0012 46.8825ZM3.50515 26.4935C3.50671 25.2442 3.94467 24.0348 4.74334 23.0741C5.542 22.1135 6.65117 21.4621 7.87915 21.2325C7.22442 24.7303 7.33461 28.3283 8.20215 31.7795C6.90976 31.6216 5.71941 30.9975 4.85459 30.0242C3.98976 29.0509 3.50992 27.7955 3.50515 26.4935ZM58.5452 31.6415V25.7275C58.538 24.2196 58.3971 22.7154 58.1241 21.2325C59.3167 21.4501 60.3996 22.0672 61.1946 22.9823C61.9897 23.8973 62.4496 25.0558 62.4986 26.267C62.5476 27.4782 62.1828 28.6701 61.4643 29.6463C60.7457 30.6226 59.7162 31.3252 58.5452 31.6385V31.6415Z" fill="white"/>
<path d="M33.2735 12.4641C30.643 12.4641 28.0716 13.2441 25.8844 14.7055C23.6973 16.1669 21.9926 18.2441 20.9859 20.6744C19.9793 23.1046 19.7159 25.7788 20.2291 28.3588C20.7423 30.9387 22.009 33.3085 23.869 35.1686C25.729 37.0286 28.0989 38.2953 30.6788 38.8085C33.2588 39.3217 35.9329 39.0583 38.3632 38.0516C40.7935 37.045 42.8706 35.3403 44.3321 33.1531C45.7935 30.966 46.5735 28.3945 46.5735 25.7641C46.5735 24.0175 46.2295 22.288 45.5611 20.6744C44.8927 19.0607 43.9131 17.5945 42.678 16.3595C41.443 15.1245 39.9768 14.1448 38.3632 13.4765C36.7496 12.8081 35.0201 12.4641 33.2735 12.4641ZM33.2735 36.569C31.1354 36.5692 29.0452 35.9354 27.2673 34.7476C25.4895 33.5598 24.1038 31.8715 23.2855 29.8961C22.4672 27.9207 22.2531 25.7471 22.6703 23.65C23.0874 21.5529 24.1171 19.6267 25.629 18.1149C27.141 16.603 29.0674 15.5736 31.1644 15.1566C33.2615 14.7396 35.4352 14.9539 37.4105 15.7724C39.3858 16.5909 41.074 17.9767 42.2616 19.7547C43.4492 21.5327 44.0829 23.6229 44.0825 25.7611C44.0823 28.6277 42.9434 31.3769 40.9163 33.4039C38.8893 35.4309 36.1402 36.5698 33.2735 36.57V36.569Z" fill="#FB8D04"/>
<path d="M33.2796 18.5354C32.95 18.5356 32.634 18.6667 32.401 18.8997C32.1679 19.1328 32.0369 19.4488 32.0366 19.7784V24.5194H26.4616C26.132 24.5194 25.8158 24.6503 25.5827 24.8834C25.3496 25.1165 25.2186 25.4327 25.2186 25.7624C25.2186 26.092 25.3496 26.4082 25.5827 26.6413C25.8158 26.8744 26.132 27.0054 26.4616 27.0054H33.2796C33.6092 27.0043 33.9249 26.8725 34.1574 26.6389C34.3899 26.4053 34.5202 26.0889 34.5196 25.7594V19.7784C34.5196 19.4491 34.3891 19.1333 34.1567 18.9001C33.9243 18.667 33.6089 18.5354 33.2796 18.5344V18.5354Z" fill="#FB8D04"/>
</svg>
